<svg id="mainlogo" width="100%" height="auto" version="1.1" viewBox="0 0 280.76786 99.776399" xmlns="http://www.w3.org/2000/svg" >
 <g transform="translate(-6.426 32.94)">
  <g aria-label="Timed-UP">
   <path class="smcursor clock" d="m26.43 27.33v7.671h23.36v-7.671z" />
   <path class="center bounce clock" d="m61.05 27.06c-2.388 0-4.115 1.727-4.115 4.166 0 2.388 1.727 4.115 4.115 4.115s4.115-1.727 4.115-4.115c0-2.438-1.727-4.166-4.115-4.166z"/>
    <circle class="outercircle" cx="141.2px" cy="21px"r="45px" style="fill:transparent;stroke:#CFD8DC;stroke-width:2;"/> 
   <path class="letI bigcursor clock" d="m56.53 38.95v27.48h8.992v-27.48z" />
   <path class="letM let" d="m109.1 38.6c-4.47 0-7.823 2.083-9.601 6.147-1.372-3.861-4.674-6.147-9.144-6.147-3.962 0-7.061 1.676-8.941 4.877v-4.521h-8.992v27.48h8.992v-13.56c0-3.607 2.032-6.147 5.232-6.198 2.794 0 4.521 1.88 4.521 5.029v14.73h9.042v-13.56c0-3.607 1.981-6.147 5.182-6.198 2.794 0 4.521 1.88 4.521 5.029v14.73h9.042v-17.32c0-6.452-3.912-10.52-9.855-10.52z" />
   <path class="letE let" d="m137.2 38.65c-8.585 0-14.33 5.639-14.33 14.17 0 8.382 5.537 13.92 14.53 13.92 5.08 0 9.195-1.727 11.99-4.877l-4.724-4.724c-1.829 1.829-4.115 2.794-6.452 2.794-3.099 0-5.385-1.727-6.248-4.826h19.1c.6096-10.01-4.267-16.46-13.87-16.46zm-5.436 11.63c.6096-3.15 2.54-5.283 5.486-5.283 3.048 0 5.08 2.134 5.08 5.283z" />
   <path class="letD let" d="m174.4 28.74v13.82c-1.93-2.489-4.775-3.912-8.331-3.912-7.569 0-12.6 5.537-12.6 13.92 0 8.534 5.08 14.22 12.8 14.22 3.454 0 6.248-1.372 8.128-3.912v3.556h9.042v-37.69zm-5.893 30.94c-3.556 0-5.944-2.794-5.944-6.858s2.388-6.858 5.944-6.858c3.505 0 5.893 2.743 5.893 6.858 0 4.064-2.388 6.858-5.893 6.858z" />
   <path class="dash let" d="m190 47.94v5.791h13.46v-5.791z" />
   <path class="letU let" d="m218.4 51.5v-20.68h-9.296v20.68c0 9.398 6.452 15.34 16.51 15.34 10.01 0 16.31-5.944 16.31-15.34v-20.68h-9.296v20.68c0 4.623-2.845 7.417-6.96 7.417-4.216 0-7.264-2.845-7.264-7.417z" />
   <path class="letP let" d="m263.9 30.82h-15.65v35.61h9.296v-9.855h6.35c9.093 0 14.33-4.877 14.33-13.26 0-7.925-5.232-12.5-14.33-12.5zm-.4572 18.34h-5.893v-10.92h5.893c3.759 0 5.944 1.88 5.944 5.385 0 3.607-2.184 5.537-5.944 5.537z" />
   <path class="letT let" d="m34.47 66.44 7.671-.05904-.07865-10.93-.0692-9.612-.07941-11.03-7.671.05904z" />
  </g>
 </g>
</svg>
